<svg viewBox="0 0 600 450" xmlns="http://www.w3.org/2000/svg">
  <defs>
    <marker id="arrowhead" markerWidth="5" markerHeight="3" 
     refX="4" refY="1.5" orient="auto">
      <polygon points="0 0, 5 1.5, 0 3" fill="#6c7b7f" />
    </marker>
  </defs>
  
  <!-- Background -->
  <rect width="600" height="450" fill="transparent"/>
  
  <!-- Service -->
  <circle cx="300" cy="225" r="38" fill="#4b5563" stroke="#374151" stroke-width="2" />
  <text x="300" y="220" text-anchor="middle" font-size="12" font-weight="bold" fill="white">Service</text>
  <text x="300" y="237" text-anchor="middle" font-size="9" fill="white">/calculation</text>
  
  <!-- Client Participant 1 -->
  <rect x="60" y="108" width="113" height="75" fill="#f9fafb" stroke="#6c7b7f" stroke-width="2" />
  <text x="116" y="130" text-anchor="middle" font-size="11" font-weight="bold" fill="#374151">Participant</text>
  
  <!-- Client Port 1 -->
  <rect x="75" y="148" width="83" height="26" fill="#6b7280" stroke="#4b5563" stroke-width="2"/>
  <text x="116" y="158" text-anchor="middle" font-size="10" font-weight="bold" fill="white">Client Port</text>
  <text x="116" y="168" text-anchor="middle" font-size="8" fill="white">Make requests</text>
  
  <!-- Client Participant 2 -->
  <rect x="60" y="252" width="113" height="75" fill="#f9fafb" stroke="#6c7b7f" stroke-width="2" />
  <text x="116" y="274" text-anchor="middle" font-size="11" font-weight="bold" fill="#374151">Participant</text>
  
  <!-- Client Port 2 -->
  <rect x="75" y="292" width="83" height="26" fill="#6b7280" stroke="#4b5563" stroke-width="2"/>
  <text x="116" y="302" text-anchor="middle" font-size="10" font-weight="bold" fill="white">Client Port</text>
  <text x="116" y="312" text-anchor="middle" font-size="8" fill="white">Make requests</text>
  
  <!-- Server Participant -->
  <rect x="428" y="195" width="113" height="75" fill="#f9fafb" stroke="#6c7b7f" stroke-width="2" />
  <text x="484" y="222" text-anchor="middle" font-size="11" font-weight="bold" fill="#374151">Participant</text>
  
  <!-- Server Port -->
  <rect x="443" y="235" width="83" height="26" fill="#6b7280" stroke="#4b5563" stroke-width="2"/>
  <text x="484" y="245" text-anchor="middle" font-size="10" font-weight="bold" fill="white">Server Port</text>
  <text x="484" y="255" text-anchor="middle" font-size="8" fill="white">Respond to requests</text>
  
  <!-- Request Arrows from Clients to Service -->
  <line x1="173" y1="144" x2="262" y2="193" stroke="#6c7b7f" stroke-width="2.5" marker-end="url(#arrowhead)"/>
  <line x1="173" y1="288" x2="262" y2="244" stroke="#6c7b7f" stroke-width="2.5" marker-end="url(#arrowhead)"/>
  
  <!-- Request Arrow -->
  <line x1="338" y1="207" x2="425" y2="207" stroke="#6c7b7f" stroke-width="2.5" marker-end="url(#arrowhead)"/>
  
  <!-- Response Stream Arrows -->
  <line x1="428" y1="243" x2="338" y2="243" stroke="#6c7b7f" stroke-width="2.5" marker-end="url(#arrowhead)"/>
  <line x1="428" y1="252" x2="338" y2="252" stroke="#6c7b7f" stroke-width="2" marker-end="url(#arrowhead)" stroke-dasharray="4,4"/>
  <line x1="428" y1="261" x2="338" y2="261" stroke="#6c7b7f" stroke-width="2" marker-end="url(#arrowhead)" stroke-dasharray="3,3"/>
  
  <!-- Response Stream Arrows (Service to Client 1) -->
  <line x1="266" y1="207" x2="175" y2="162" stroke="#6c7b7f" stroke-width="2.5" marker-end="url(#arrowhead)"/>
  <line x1="262" y1="216" x2="175" y2="171" stroke="#6c7b7f" stroke-width="2" marker-end="url(#arrowhead)" stroke-dasharray="4,4"/>
  <line x1="262" y1="225" x2="175" y2="180" stroke="#6c7b7f" stroke-width="2" marker-end="url(#arrowhead)" stroke-dasharray="3,3"/>
  
  <!-- Response Stream Arrows (Service to Client 2) -->
  <line x1="270" y1="252" x2="175" y2="297" stroke="#6c7b7f" stroke-width="2.5" marker-end="url(#arrowhead)"/>
  <line x1="270" y1="261" x2="175" y2="306" stroke="#6c7b7f" stroke-width="2" marker-end="url(#arrowhead)" stroke-dasharray="4,4"/>
  <line x1="270" y1="270" x2="175" y2="315" stroke="#6c7b7f" stroke-width="2" marker-end="url(#arrowhead)" stroke-dasharray="3,3"/>

  <!-- Request label -->
  <text x="383" y="198" text-anchor="middle" font-size="9" fill="#6c7b7f">Request</text>

  <!-- Response Stream Label -->
  <text x="383" y="288" text-anchor="middle" font-size="9" fill="#6c7b7f">Streaming Response</text>
  
</svg>
