<svg width="1200" height="630" viewBox="0 0 1200 630" xmlns="http://www.w3.org/2000/svg">
  <defs>
    <linearGradient id="bg" x1="0" y1="0" x2="0" y2="1">
      <stop offset="0" stop-color="#f8fbfe"/>
      <stop offset="1" stop-color="#eaf1f8"/>
    </linearGradient>
    <radialGradient id="glow" cx="50%" cy="30%" r="55%">
      <stop offset="0" stop-color="rgba(10,138,160,0.13)"/>
      <stop offset="1" stop-color="rgba(10,138,160,0)"/>
    </radialGradient>
  </defs>

  <rect width="1200" height="630" fill="url(#bg)"/>
  <rect width="1200" height="630" fill="url(#glow)"/>
  <rect x="0" y="0" width="1200" height="6" fill="#0a8aa0"/>

  <!-- oryx mark -->
  <g transform="translate(443 64) scale(1.97)" style="color: #0c1825">
    <g stroke="currentColor" stroke-width="1.2" stroke-linejoin="round" vector-effect="non-scaling-stroke">
      <path fill="#588bb5" transform="matrix(0.1,0,0,-0.1,0,200)" d="M 848.671875 1037.96875 L 769.335938 1174.023438 L 749.492188 974.179688 Z M 848.671875 1037.96875 "/>
      <path fill="#588bb5" transform="matrix(0.1,0,0,-0.1,0,200)" d="M 756.5625 1189.609375 L 718.515625 1258.398438 L 681.679688 1218.710938 Z M 756.5625 1189.609375 "/>
      <path fill="#b3e6ef" transform="matrix(0.1,0,0,-0.1,0,200)" d="M 1444.53125 1230.859375 L 1303.828125 1216.25 L 1105.859375 1070.9375 Z M 1444.53125 1230.859375 "/>
      <path fill="#b3e6ef" transform="matrix(0.1,0,0,-0.1,0,200)" d="M 730.078125 998.125 L 737.1875 1067.539062 L 521.015625 862.539062 Z M 730.078125 998.125 "/>
      <path fill="#588bb5" transform="matrix(0.1,0,0,-0.1,0,200)" d="M 1445.703125 1211.640625 L 1384.570312 1180.15625 L 1362.65625 1044.101562 Z M 1445.703125 1211.640625 "/>
      <path fill="#b3e6ef" d="M 86.429688 94.785156 C 86.75 94.785156 101.570312 67.914062 101.570312 67.914062 L 73.390625 73.148438 L 86.429688 94.785156 "/>
      <path fill="none" transform="matrix(0.1,0,0,-0.1,0,200)" d="M 864.296875 1052.148438 C 867.5 1052.148438 1015.703125 1320.859375 1015.703125 1320.859375 L 733.90625 1268.515625 Z M 864.296875 1052.148438 "/>
      <path fill="#b3e6ef" transform="matrix(0.1,0,0,-0.1,0,200)" d="M 1267.734375 1252.304688 L 1315.898438 1531.015625 L 1035 1325.9375 Z M 1267.734375 1252.304688 "/>
      <path fill="#588bb5" d="M 92.820312 87.738281 L 106.863281 92.855469 L 128.308594 77.566406 L 102.914062 69.160156 L 92.820312 87.738281 "/>
      <path fill="none" transform="matrix(0.1,0,0,-0.1,0,200)" d="M 928.203125 1122.617188 L 1068.632812 1071.445312 L 1283.085938 1224.335938 L 1029.140625 1308.398438 Z M 928.203125 1122.617188 "/>
      <path fill="#588bb5" d="M 131.261719 57.824219 L 150.371094 56.046875 L 150.371094 53.316406 L 132.828125 46.078125 L 131.261719 57.824219 "/>
      <path fill="none" transform="matrix(0.1,0,0,-0.1,0,200)" d="M 1312.617188 1421.757812 L 1503.710938 1439.53125 L 1503.710938 1466.835938 L 1328.28125 1539.21875 Z M 1312.617188 1421.757812 "/>
      <path fill="#b3e6ef" transform="matrix(0.1,0,0,-0.1,0,200)" d="M 1314.53125 1406.40625 L 1365.234375 1410.273438 L 1285.273438 1244.53125 Z M 1314.53125 1406.40625 "/>
      <path fill="#588bb5" transform="matrix(0.1,0,0,-0.1,0,200)" d="M 1297.96875 1539.023438 L 851.40625 1539.0625 L 1243.398438 1500.039062 Z M 1297.96875 1539.023438 "/>
    </g>
  </g>

  <text x="600" y="410" text-anchor="middle" font-family="Satoshi, -apple-system, BlinkMacSystemFont, 'Segoe UI', Roboto, sans-serif" font-weight="700" font-size="120" letter-spacing="-3" fill="#0c1825">iceoryx<tspan fill="#0a8aa0">2</tspan></text>
  <text x="600" y="462" text-anchor="middle" font-family="'JetBrains Mono', monospace" font-weight="600" font-size="26" letter-spacing="14" fill="#74879a">THE BOOK</text>
  <text x="600" y="512" text-anchor="middle" font-family="Satoshi, -apple-system, BlinkMacSystemFont, 'Segoe UI', Roboto, sans-serif" font-size="28" fill="#46596b">Fundamentals, tutorials, and how-tos for building</text>
  <text x="600" y="548" text-anchor="middle" font-family="Satoshi, -apple-system, BlinkMacSystemFont, 'Segoe UI', Roboto, sans-serif" font-size="28" fill="#46596b">zero-copy systems with iceoryx2</text>
</svg>
