<svg viewBox="0 0 900 500" xmlns="http://www.w3.org/2000/svg">
  <defs>
    <marker id="arrowhead" markerWidth="8" markerHeight="6" 
     refX="7" refY="3" orient="auto">
      <polygon points="0 0, 8 3, 0 6" fill="#6c7b7f" />
    </marker>
  </defs>
  
  <!-- Background -->
  <rect width="900" height="500" fill="transparent"/>
  
  <!-- Central Shared Memory Region -->
  <rect x="350" y="180" width="200" height="140" fill="#4b5563" stroke="#374151" stroke-width="2" />
  <text x="450" y="205" text-anchor="middle" font-size="14" font-weight="bold" fill="white">Shared Memory Region</text>
  <text x="450" y="225" text-anchor="middle" font-size="10" fill="white">Zero-Copy Data Exchange</text>
  
  <!-- Data representation inside shared memory -->
  <rect x="370" y="250" width="160" height="30" fill="rgba(255,255,255,0.2)" stroke="white" stroke-width="1"/>
  <text x="450" y="268" text-anchor="middle" font-size="9" fill="white">Relocatable Data Types</text>
  
  <!-- Rust Application -->
  <rect x="50" y="200" width="120" height="70" fill="#e5e7eb" stroke="#6c7b7f" stroke-width="2" />
  <text x="110" y="230" text-anchor="middle" font-size="12" font-weight="bold" fill="#374151">Rust</text>
  <text x="110" y="245" text-anchor="middle" font-size="11" fill="#374151">Application</text>
  
  <!-- C++ Application -->
  <rect x="730" y="80" width="120" height="70" fill="#e5e7eb" stroke="#6c7b7f" stroke-width="2" />
  <text x="790" y="110" text-anchor="middle" font-size="12" font-weight="bold" fill="#374151">C++</text>
  <text x="790" y="125" text-anchor="middle" font-size="11" fill="#374151">Application</text>
  
  <!-- C Application -->
  <rect x="730" y="200" width="120" height="70" fill="#e5e7eb" stroke="#6c7b7f" stroke-width="2" />
  <text x="790" y="230" text-anchor="middle" font-size="12" font-weight="bold" fill="#374151">C</text>
  <text x="790" y="245" text-anchor="middle" font-size="11" fill="#374151">Application</text>
  
  <!-- Python Application -->
  <rect x="730" y="320" width="120" height="70" fill="#e5e7eb" stroke="#6c7b7f" stroke-width="2" />
  <text x="790" y="350" text-anchor="middle" font-size="12" font-weight="bold" fill="#374151">Python</text>
  <text x="790" y="365" text-anchor="middle" font-size="11" fill="#374151">Application</text>
  
  <!-- Communication arrows -->
  <!-- Rust to/from shared memory -->
  <line x1="170" y1="235" x2="350" y2="235" stroke="#6c7b7f" stroke-width="3" marker-end="url(#arrowhead)"/>
  <line x1="350" y1="255" x2="170" y2="255" stroke="#6c7b7f" stroke-width="3" marker-end="url(#arrowhead)"/>
  
  <!-- C++ to/from shared memory -->
  <line x1="730" y1="115" x2="550" y2="200" stroke="#6c7b7f" stroke-width="3" marker-end="url(#arrowhead)"/>
  <line x1="550" y1="215" x2="730" y2="130" stroke="#6c7b7f" stroke-width="3" marker-end="url(#arrowhead)"/>
  
  <!-- C to/from shared memory -->
  <line x1="730" y1="235" x2="550" y2="235" stroke="#6c7b7f" stroke-width="3" marker-end="url(#arrowhead)"/>
  <line x1="550" y1="255" x2="730" y2="255" stroke="#6c7b7f" stroke-width="3" marker-end="url(#arrowhead)"/>
  
  <!-- Python to/from shared memory -->
  <line x1="730" y1="355" x2="550" y2="290" stroke="#6c7b7f" stroke-width="3" marker-end="url(#arrowhead)"/>
  <line x1="550" y1="305" x2="730" y2="370" stroke="#6c7b7f" stroke-width="3" marker-end="url(#arrowhead)"/>
</svg>
