<svg viewBox="0 0 1300 800" xmlns="http://www.w3.org/2000/svg">
  <defs>
    <marker id="arrow" markerWidth="8" markerHeight="8" 
     refX="7" refY="4" orient="auto">
      <polygon points="0,0 0,8 8,4" fill="#6c7b7f"/>
    </marker>
  </defs>
  
  <!-- Background -->
  <rect width="1300" height="800" fill="transparent"/>

  <!-- Direct iceoryx2 Apps -->
  <rect x="60" y="135" width="70" height="50" fill="#e5e7eb" stroke="#6c7b7f" stroke-width="2" />
  <text x="95" y="158" text-anchor="middle" font-size="11" font-weight="bold" fill="#1f2937">iceoryx2</text>
  <text x="95" y="172" text-anchor="middle" font-size="11" fill="#1f2937">App</text>
  
  <rect x="170" y="135" width="70" height="50" fill="#e5e7eb" stroke="#6c7b7f" stroke-width="2" />
  <text x="205" y="158" text-anchor="middle" font-size="11" font-weight="bold" fill="#1f2937">iceoryx2</text>
  <text x="205" y="172" text-anchor="middle" font-size="11" fill="#1f2937">App</text>

  <!-- Tunnelled App -->
  <rect x="280" y="135" width="70" height="50" fill="#e5e7eb" stroke="#6c7b7f" stroke-width="2" />
  <text x="315" y="158" text-anchor="middle" font-size="11" font-weight="bold" fill="#1f2937">iceoryx2</text>
  <text x="315" y="172" text-anchor="middle" font-size="11" fill="#1f2937">App</text>

  <text x="390" y="155" text-anchor="middle" font-size="10" fill="#6c7b7f">host-to-host</text>

  <!-- Tunnel -->
  <rect x="440" y="125" width="210" height="60" fill="#e5e7eb" stroke="#6c7b7f" stroke-width="2" />
  <text x="550" y="145" text-anchor="middle" font-size="11" font-weight="bold" fill="#1f2937">tunnel</text>

  <rect x="455" y="152" width="60" height="25" fill="#9ca3af"/>
  <text x="485" y="167" text-anchor="middle" font-size="10" font-weight="bold" fill="white">Zenoh</text>
  
  <rect x="525" y="152" width="60" height="25" fill="#9ca3af"/>
  <text x="555" y="167" text-anchor="middle" font-size="10" font-weight="bold" fill="white">smoltcp</text>
  
  <rect x="595" y="152" width="40" height="25" fill="#9ca3af"/>
  <text x="615" y="167" text-anchor="middle" font-size="10" font-weight="bold" fill="white">...</text>

  <!-- Gateway Applications -->
  <rect x="700" y="50" width="60" height="40" fill="#f9fafb" stroke="#6b7280" stroke-width="2" />
  <text x="730" y="68" text-anchor="middle" font-size="11" font-weight="bold" fill="#1f2937">Zenoh</text>
  <text x="730" y="82" text-anchor="middle" font-size="11" fill="#1f2937">App</text>
  
  <rect x="775" y="50" width="60" height="40" fill="#f9fafb" stroke="#6b7280" stroke-width="2" />
  <text x="805" y="68" text-anchor="middle" font-size="11" font-weight="bold" fill="#1f2937">DDS</text>
  <text x="805" y="82" text-anchor="middle" font-size="11" fill="#1f2937">App</text>
  
  <rect x="850" y="50" width="60" height="40" fill="#f9fafb" stroke="#6b7280" stroke-width="2" />
  <text x="880" y="68" text-anchor="middle" font-size="11" font-weight="bold" fill="#1f2937">...</text>
  <text x="880" y="82" text-anchor="middle" font-size="11" fill="#1f2937">App</text>
  
  <!-- Gateway -->
  <rect x="700" y="125" width="210" height="60" fill="#e5e7eb" stroke="#6c7b7f" stroke-width="2" />
  <text x="810" y="145" text-anchor="middle" font-size="11" font-weight="bold" fill="#1f2937">gateway</text>
  
  <rect x="715" y="152" width="60" height="25" fill="#9ca3af"/>
  <text x="745" y="167" text-anchor="middle" font-size="10" font-weight="bold" fill="white">Zenoh</text>
  
  <rect x="785" y="152" width="60" height="25" fill="#9ca3af"/>
  <text x="815" y="167" text-anchor="middle" font-size="10" font-weight="bold" fill="white">DDS</text>
  
  <rect x="855" y="152" width="40" height="25" fill="#9ca3af"/>
  <text x="875" y="167" text-anchor="middle" font-size="10" font-weight="bold" fill="white">...</text>
    
  <!-- ROS 2 Apps -->
  <rect x="970" y="50" width="50" height="40" fill="#f9fafb" stroke="#6b7280" stroke-width="2" />
  <text x="995" y="68" text-anchor="middle" font-size="10" font-weight="bold" fill="#1f2937">ROS 2</text>
  <text x="995" y="81" text-anchor="middle" font-size="10" fill="#1f2937">App</text>
  
  <rect x="1030" y="50" width="50" height="40" fill="#f9fafb" stroke="#6b7280" stroke-width="2" />
  <text x="1055" y="68" text-anchor="middle" font-size="10" font-weight="bold" fill="#1f2937">ROS 2</text>
  <text x="1055" y="81" text-anchor="middle" font-size="10" fill="#1f2937">App</text>
  
  <rect x="1090" y="50" width="50" height="40" fill="#f9fafb" stroke="#6b7280" stroke-width="2" />
  <text x="1115" y="68" text-anchor="middle" font-size="10" font-weight="bold" fill="#1f2937">ROS 2</text>
  <text x="1115" y="81" text-anchor="middle" font-size="10" fill="#1f2937">tooling</text>
  
  <rect x="970" y="125" width="170" height="60" fill="#e5e7eb" stroke="#6c7b7f" stroke-width="2" />
  <text x="1055" y="160" text-anchor="middle" font-size="14" font-weight="bold" fill="#1f2937">rmw_iceoryx2</text>
  
  <!-- AUTOSAR Apps -->
  <rect x="1190" y="50" width="70" height="40" fill="#f9fafb" stroke="#6b7280" stroke-width="2" />
  <text x="1225" y="68" text-anchor="middle" font-size="11" font-weight="bold" fill="#1f2937">AUTOSAR</text>
  <text x="1225" y="82" text-anchor="middle" font-size="11" fill="#1f2937">App</text>
  
  <rect x="1190" y="140" width="70" height="40" fill="#f9fafb" stroke="#6b7280" stroke-width="2" />
  <text x="1225" y="158" text-anchor="middle" font-size="10" font-weight="bold" fill="#1f2937">AUTOSAR</text>
  <text x="1225" y="171" text-anchor="middle" font-size="10" font-weight="bold" fill="#1f2937">Adaptive</text>
  
  <!-- iceoryx2 Core Layer -->
  <rect x="40" y="300" width="1240" height="120" fill="#4b5563" stroke="#374151" stroke-width="2" />
  <text x="660" y="405" text-anchor="middle" font-size="28" font-weight="bold" fill="white">iceoryx2</text>
  
  <!-- Language Bindings Layer -->
  <rect x="60" y="320" width="1200" height="50" fill="#f3f4f6" stroke="#6b7280" stroke-width="2"/>
  
  <text x="160" y="350" text-anchor="middle" font-size="14" font-weight="bold" fill="#1f2937">C</text>
  <text x="280" y="350" text-anchor="middle" font-size="14" font-weight="bold" fill="#1f2937">C++</text>
  <text x="400" y="350" text-anchor="middle" font-size="14" font-weight="bold" fill="#1f2937">Rust</text>
  <text x="520" y="350" text-anchor="middle" font-size="14" font-weight="bold" fill="#1f2937">Python</text>
  <text x="640" y="350" text-anchor="middle" font-size="14" font-weight="bold" fill="#6b7280">Go</text>
  <text x="760" y="350" text-anchor="middle" font-size="14" font-weight="bold" fill="#6b7280">Swift</text>
  <text x="880" y="350" text-anchor="middle" font-size="14" font-weight="bold" fill="#6b7280">Lua</text>
  <text x="1000" y="350" text-anchor="middle" font-size="14" font-weight="bold" fill="#6b7280">Java</text>
  <text x="1120" y="350" text-anchor="middle" font-size="14" font-weight="bold" fill="#6b7280">...</text>
  
  <!-- Bare Metal -->
  <rect x="40" y="440" width="100" height="160" fill="#9ca3af" stroke="#6b7280" stroke-width="2" />
  <text x="90" y="525" text-anchor="middle" font-size="16" font-weight="bold" fill="white">Bare Metal</text>
  
  <!-- Operating Systems Layer -->
  <rect x="150" y="440" width="910" height="80" fill="#e5e7eb" stroke="#9ca3af" stroke-width="2" />
  
  <rect x="180" y="460" width="80" height="40" fill="white" stroke="#9ca3af"/>
  <text x="220" y="485" text-anchor="middle" font-size="12" font-weight="bold" fill="#1f2937">Android</text>
  
  <rect x="280" y="460" width="80" height="40" fill="white" stroke="#9ca3af"/>
  <text x="320" y="485" text-anchor="middle" font-size="12" font-weight="bold" fill="#1f2937">Linux</text>
  
  <rect x="380" y="460" width="80" height="40" fill="white" stroke="#9ca3af"/>
  <text x="420" y="485" text-anchor="middle" font-size="12" font-weight="bold" fill="#1f2937">macOS</text>
  
  <rect x="480" y="460" width="80" height="40" fill="white" stroke="#9ca3af"/>
  <text x="520" y="485" text-anchor="middle" font-size="12" font-weight="bold" fill="#1f2937">QNX</text>
  
  <rect x="580" y="460" width="80" height="40" fill="white" stroke="#9ca3af"/>
  <text x="620" y="485" text-anchor="middle" font-size="12" font-weight="bold" fill="#1f2937">VxWorks</text>
  
  <rect x="680" y="460" width="80" height="40" fill="white" stroke="#9ca3af"/>
  <text x="720" y="485" text-anchor="middle" font-size="12" font-weight="bold" fill="#1f2937">Windows</text>
  
  <rect x="780" y="460" width="120" height="40" fill="#f9fafb" stroke="#6b7280"/>
  <text x="840" y="492" text-anchor="middle" font-size="12" font-weight="bold" fill="#1f2937">Hypervisor</text>
  
  <rect x="790" y="467" width="30" height="12" fill="white" stroke="#6b7280"/>
  <text x="805" y="475" text-anchor="middle" font-size="9" fill="#1f2937">Linux</text>
  
  <rect x="825" y="467" width="30" height="12" fill="white" stroke="#6b7280"/>
  <text x="840" y="475" text-anchor="middle" font-size="9" fill="#1f2937">QNX</text>
  
  <rect x="860" y="467" width="30" height="12" fill="white" stroke="#6b7280"/>
  <text x="875" y="475" text-anchor="middle" font-size="9" fill="#1f2937">...</text>
  
  <rect x="920" y="460" width="60" height="40" fill="white" stroke="#9ca3af"/>
  <text x="950" y="485" text-anchor="middle" font-size="12" font-weight="bold" fill="#1f2937">...</text>
  
  <!-- Hardware Architecture Layer -->
  <rect x="150" y="540" width="910" height="60" fill="#f9fafb" stroke="#6b7280" stroke-width="2" />
  
  <rect x="200" y="560" width="90" height="25" fill="#9ca3af"/>
  <text x="245" y="577" text-anchor="middle" font-size="13" font-weight="bold" fill="white">x86_64</text>
  
  <rect x="310" y="560" width="90" height="25" fill="#9ca3af"/>
  <text x="355" y="577" text-anchor="middle" font-size="13" font-weight="bold" fill="white">x86_32</text>
  
  <rect x="420" y="560" width="90" height="25" fill="#9ca3af"/>
  <text x="465" y="577" text-anchor="middle" font-size="13" font-weight="bold" fill="white">AArch64</text>
  
  <rect x="530" y="560" width="90" height="25" fill="#9ca3af"/>
  <text x="575" y="577" text-anchor="middle" font-size="13" font-weight="bold" fill="white">ARMv7</text>
  
  <rect x="640" y="560" width="90" height="25" fill="#9ca3af"/>
  <text x="685" y="577" text-anchor="middle" font-size="13" font-weight="bold" fill="white">RISC-V</text>

  <rect x="750" y="560" width="90" height="25" fill="#9ca3af"/>
  <text x="795" y="577" text-anchor="middle" font-size="13" font-weight="bold" fill="white">...</text>
  
  <!-- GPU -->
  <rect x="1070" y="440" width="100" height="160" fill="#9ca3af" stroke="#6b7280" stroke-width="2" />
  <text x="1115" y="525" text-anchor="middle" font-size="16" font-weight="bold" fill="white">GPU</text>
  
  <!-- FPGA -->
  <rect x="1180" y="440" width="100" height="160" fill="#9ca3af" stroke="#6b7280" stroke-width="2" />
  <text x="1230" y="525" text-anchor="middle" font-size="16" font-weight="bold" fill="white">FPGA</text>
  
  <!-- App Connections to core -->
  <line x1="95" y1="185" x2="95" y2="300" stroke="#6c7b7f" stroke-width="2" marker-end="url(#arrow)"/>
  <line x1="205" y1="185" x2="205" y2="300" stroke="#6c7b7f" stroke-width="2" marker-end="url(#arrow)"/>

  <!-- Tunnel Connections -->
  <line x1="350" y1="160" x2="440" y2="160" stroke="#6c7b7f" stroke-width="2" marker-end="url(#arrow)"/>
  <line x1="550" y1="185" x2="550" y2="300" stroke="#6c7b7f" stroke-width="2" marker-end="url(#arrow)"/>

  <!-- Gateway Connections -->
  <line x1="730" y1="90" x2="730" y2="125" stroke="#6c7b7f" stroke-width="2" marker-end="url(#arrow)"/>
  <line x1="805" y1="90" x2="805" y2="125" stroke="#6c7b7f" stroke-width="2" marker-end="url(#arrow)"/>
  <line x1="880" y1="90" x2="880" y2="125" stroke="#6c7b7f" stroke-width="2" marker-end="url(#arrow)"/>
  <line x1="805" y1="185" x2="805" y2="300" stroke="#6c7b7f" stroke-width="2" marker-end="url(#arrow)"/>

  <!-- ROS Connections -->
  <line x1="995" y1="90" x2="995" y2="125" stroke="#6c7b7f" stroke-width="2" marker-end="url(#arrow)"/>
  <line x1="1054" y1="90" x2="1054" y2="125" stroke="#6c7b7f" stroke-width="2" marker-end="url(#arrow)"/>
  <line x1="1115" y1="90" x2="1115" y2="125" stroke="#6c7b7f" stroke-width="2" marker-end="url(#arrow)"/>
  <line x1="1054" y1="185" x2="1054" y2="300" stroke="#6c7b7f" stroke-width="2" marker-end="url(#arrow)"/>
  
  <!-- AUTOSAR Connections -->
  <line x1="1225" y1="90" x2="1225" y2="140" stroke="#6c7b7f" stroke-width="2" marker-end="url(#arrow)"/>
  <line x1="1225" y1="180" x2="1225" y2="300" stroke="#6c7b7f" stroke-width="2" marker-end="url(#arrow)"/>
  
</svg>
