<svg viewBox="0 0 1300 800" xmlns="http://www.w3.org/2000/svg">
  <defs>
    <marker id="arrowhead" markerWidth="6" markerHeight="4" 
     refX="5" refY="2" orient="auto">
      <polygon points="0 0, 6 2, 0 4" fill="#2B5C8C" />
    </marker>
  </defs>
  
  <!-- Background -->
  <rect width="1300" height="800" fill="transparent"/>

  <!-- Direct iceoryx2 Apps -->
  <rect x="60" y="135" width="70" height="50" rx="6" fill="#A5CEE4" stroke="#2B5C8C" stroke-width="2" />
  <text x="95" y="155" text-anchor="middle" font-family="Arial, sans-serif" font-size="9" font-weight="bold" fill="#2B5C8C">iceoryx2</text>
  <text x="95" y="170" text-anchor="middle" font-family="Arial, sans-serif" font-size="9" fill="#2B5C8C">App</text>
  
  <rect x="170" y="135" width="70" height="50" rx="6" fill="#A5CEE4" stroke="#2B5C8C" stroke-width="2" />
  <text x="205" y="155" text-anchor="middle" font-family="Arial, sans-serif" font-size="9" font-weight="bold" fill="#2B5C8C">iceoryx2</text>
  <text x="205" y="170" text-anchor="middle" font-family="Arial, sans-serif" font-size="9" fill="#2B5C8C">App</text>

  <!-- Tunnelled App  -->
  <rect x="280" y="135" width="70" height="50" rx="6" fill="#A5CEE4" stroke="#2B5C8C" stroke-width="2" />
  <text x="315" y="154" text-anchor="middle" font-family="Arial, sans-serif" font-size="9" font-weight="bold" fill="#2B5C8C">iceoryx2</text>
  <text x="315" y="170" text-anchor="middle" font-family="Arial, sans-serif" font-size="9" fill="#2B5C8C">App</text>

  <text x="395" y="150" text-anchor="middle" font-family="Arial, sans-serif" font-size="8" font-weight="bold" fill="#2B5C8C">host-to-host</text>

  <!-- Tunnel  -->
  <rect x="440" y="125" width="210" height="60" rx="6" fill="#A5CEE4" stroke="#2B5C8C" stroke-width="2" />
  <text x="550" y="140" text-anchor="middle" font-family="Arial, sans-serif" font-size="8" font-weight="bold" fill="#2B5C8C">tunnel</text>

  <rect x="455" y="145" width="60" height="25" rx="3" fill="#5D6D7E"/>
  <text x="485" y="162" text-anchor="middle" font-family="Arial, sans-serif" font-size="8" font-weight="bold" fill="white">zenoh</text>
  
  <rect x="525" y="145" width="60" height="25" rx="3" fill="#5D6D7E"/>
  <text x="555" y="162" text-anchor="middle" font-family="Arial, sans-serif" font-size="8" font-weight="bold" fill="white">smoltcp</text>
  
  <rect x="595" y="145" width="40" height="25" rx="3" fill="#5D6D7E"/>
  <text x="615" y="162" text-anchor="middle" font-family="Arial, sans-serif" font-size="8" font-weight="bold" fill="white">...</text>

  <!-- Gateway Applications -->
  <rect x="700" y="50" width="60" height="40" rx="6" fill="#D9D9D9" stroke="#666" stroke-width="2" />
  <text x="730" y="65" text-anchor="middle" font-family="Arial, sans-serif" font-size="9" font-weight="bold" fill="#333">zenoh</text>
  <text x="730" y="78" text-anchor="middle" font-family="Arial, sans-serif" font-size="9" fill="#333">App</text>
  
  <rect x="775" y="50" width="60" height="40" rx="6" fill="#D9D9D9" stroke="#666" stroke-width="2" />
  <text x="805" y="65" text-anchor="middle" font-family="Arial, sans-serif" font-size="9" font-weight="bold" fill="#333">DDS</text>
  <text x="805" y="78" text-anchor="middle" font-family="Arial, sans-serif" font-size="9" fill="#333">App</text>
  
  <rect x="850" y="50" width="60" height="40" rx="6" fill="#D9D9D9" stroke="#666" stroke-width="2" />
  <text x="880" y="65" text-anchor="middle" font-family="Arial, sans-serif" font-size="9" font-weight="bold" fill="#333">...</text>
  <text x="880" y="78" text-anchor="middle" font-family="Arial, sans-serif" font-size="9" fill="#333">App</text>
  
  <!-- Gateway -->
  <rect x="700" y="125" width="210" height="60" rx="6" fill="#A5CEE4" stroke="#2B5C8C" stroke-width="2" />
  <text x="810" y="140" text-anchor="middle" font-family="Arial, sans-serif" font-size="8" font-weight="bold" fill="#2B5C8C">gateway</text>
  
  <rect x="715" y="145" width="60" height="25" rx="3" fill="#5D6D7E"/>
  <text x="745" y="162" text-anchor="middle" font-family="Arial, sans-serif" font-size="8" font-weight="bold" fill="white">zenoh</text>
  
  <rect x="785" y="145" width="60" height="25" rx="3" fill="#5D6D7E"/>
  <text x="815" y="162" text-anchor="middle" font-family="Arial, sans-serif" font-size="8" font-weight="bold" fill="white">dds</text>
  
  <rect x="855" y="145" width="40" height="25" rx="3" fill="#5D6D7E"/>
  <text x="875" y="162" text-anchor="middle" font-family="Arial, sans-serif" font-size="8" font-weight="bold" fill="white">...</text>
    
  <!-- ROS 2 Apps -->
  <rect x="970" y="50" width="50" height="40" rx="4" fill="#D9D9D9" stroke="#666" stroke-width="2" />
  <text x="995" y="65" text-anchor="middle" font-family="Arial, sans-serif" font-size="8" font-weight="bold" fill="#333">ROS 2</text>
  <text x="995" y="77" text-anchor="middle" font-family="Arial, sans-serif" font-size="8" fill="#333">App</text>
  
  <rect x="1030" y="50" width="50" height="40" rx="4" fill="#D9D9D9" stroke="#666" stroke-width="2" />
  <text x="1055" y="65" text-anchor="middle" font-family="Arial, sans-serif" font-size="8" font-weight="bold" fill="#333">ROS 2</text>
  <text x="1055" y="77" text-anchor="middle" font-family="Arial, sans-serif" font-size="8" fill="#333">App</text>
  
  <rect x="1090" y="50" width="50" height="40" rx="4" fill="#D9D9D9" stroke="#666" stroke-width="2" />
  <text x="1115" y="65" text-anchor="middle" font-family="Arial, sans-serif" font-size="8" font-weight="bold" fill="#333">ROS 2</text>
  <text x="1115" y="77" text-anchor="middle" font-family="Arial, sans-serif" font-size="8" fill="#333">tooling</text>
  
  <rect x="970" y="125" width="170" height="60" rx="6" fill="#A5CEE4" stroke="#2B5C8C" stroke-width="2" />
  <text x="1055" y="160" text-anchor="middle" font-family="Arial, sans-serif" font-size="11" font-weight="bold" fill="#2B5C8C">rmw_iceoryx2</text>
  
  <!-- Autosar Apps -->
  <rect x="1190" y="50" width="70" height="40" rx="6" fill="#D9D9D9" stroke="#666" stroke-width="2" />
  <text x="1225" y="67" text-anchor="middle" font-family="Arial, sans-serif" font-size="9" font-weight="bold" fill="#333">Autosar</text>
  <text x="1225" y="80" text-anchor="middle" font-family="Arial, sans-serif" font-size="9" fill="#333">App</text>
  
  <rect x="1190" y="140" width="70" height="40" rx="6" fill="#D9D9D9" stroke="#666" stroke-width="2" />
  <text x="1225" y="155" text-anchor="middle" font-family="Arial, sans-serif" font-size="8" font-weight="bold" fill="#333">Autosar</text>
  <text x="1225" y="168" text-anchor="middle" font-family="Arial, sans-serif" font-size="8" font-weight="bold" fill="#333">Adaptive</text>
  
  <!-- iceoryx2 Core Layer -->
  <rect x="40" y="300" width="1240" height="120" rx="8" fill="#2B5C8C" stroke="#1A3D5C" stroke-width="2" />
  <text x="660" y="405" text-anchor="middle" font-family="Arial, sans-serif" font-size="24" font-weight="bold" fill="white">iceoryx2</text>
  
  <!-- Language Bindings Layer -->
  <rect x="60" y="320" width="1200" height="50" rx="6" fill="rgba(232, 232, 232, 0.8)" stroke="#666" stroke-width="2"/>
  
  <text x="160" y="350" text-anchor="middle" font-family="Arial, sans-serif" font-size="12" font-weight="bold" fill="#333">C</text>
  <text x="280" y="350" text-anchor="middle" font-family="Arial, sans-serif" font-size="12" font-weight="bold" fill="#333">C++</text>
  <text x="400" y="350" text-anchor="middle" font-family="Arial, sans-serif" font-size="12" font-weight="bold" fill="#333">Rust</text>
  <text x="520" y="350" text-anchor="middle" font-family="Arial, sans-serif" font-size="12" font-weight="bold" fill="#333">Python</text>
  <text x="640" y="350" text-anchor="middle" font-family="Arial, sans-serif" font-size="12" font-weight="bold" fill="#999">Go</text>
  <text x="760" y="350" text-anchor="middle" font-family="Arial, sans-serif" font-size="12" font-weight="bold" fill="#999">Swift</text>
  <text x="880" y="350" text-anchor="middle" font-family="Arial, sans-serif" font-size="12" font-weight="bold" fill="#999">Lua</text>
  <text x="1000" y="350" text-anchor="middle" font-family="Arial, sans-serif" font-size="12" font-weight="bold" fill="#999">Java</text>
  <text x="1120" y="350" text-anchor="middle" font-family="Arial, sans-serif" font-size="12" font-weight="bold" fill="#999">...</text>
  
  <!-- Bare Metal -->
  <rect x="40" y="440" width="100" height="160" rx="8" fill="#4A7C59" stroke="#0F5132" stroke-width="2" />
  <text x="90" y="525" text-anchor="middle" font-family="Arial, sans-serif" font-size="14" font-weight="bold" fill="white">Bare Metal</text>
  
  <!-- Operating Systems Layer -->
  <rect x="150" y="440" width="910" height="80" rx="8" fill="#B8D4B8" stroke="#4A7C59" stroke-width="2" />
  
  <rect x="180" y="460" width="80" height="40" rx="4" fill="white" stroke="#4A7C59"/>
  <text x="220" y="485" text-anchor="middle" font-family="Arial, sans-serif" font-size="9" font-weight="bold" fill="#333">Android</text>
  
  <rect x="280" y="460" width="80" height="40" rx="4" fill="white" stroke="#4A7C59"/>
  <text x="320" y="485" text-anchor="middle" font-family="Arial, sans-serif" font-size="9" font-weight="bold" fill="#333">Linux</text>
  
  <rect x="380" y="460" width="80" height="40" rx="4" fill="white" stroke="#4A7C59"/>
  <text x="420" y="485" text-anchor="middle" font-family="Arial, sans-serif" font-size="9" font-weight="bold" fill="#333">macOS</text>
  
  <rect x="480" y="460" width="80" height="40" rx="4" fill="white" stroke="#4A7C59"/>
  <text x="520" y="485" text-anchor="middle" font-family="Arial, sans-serif" font-size="9" font-weight="bold" fill="#333">QNX</text>
  
  <rect x="580" y="460" width="80" height="40" rx="4" fill="white" stroke="#4A7C59"/>
  <text x="620" y="485" text-anchor="middle" font-family="Arial, sans-serif" font-size="9" font-weight="bold" fill="#333">VxWorks</text>
  
  <rect x="680" y="460" width="80" height="40" rx="4" fill="white" stroke="#4A7C59"/>
  <text x="720" y="485" text-anchor="middle" font-family="Arial, sans-serif" font-size="9" font-weight="bold" fill="#333">Windows</text>
  
  <rect x="780" y="460" width="120" height="40" rx="4" fill="#D9D9D9" stroke="#666"/>
  <text x="840" y="492" text-anchor="middle" font-family="Arial, sans-serif" font-size="9" font-weight="bold" fill="#333">Hypervisor</text>
  
  <rect x="790" y="467" width="30" height="12" rx="2" fill="white" stroke="#666"/>
  <text x="805" y="475" text-anchor="middle" font-family="Arial, sans-serif" font-size="7" fill="#333">Linux</text>
  
  <rect x="825" y="467" width="30" height="12" rx="2" fill="white" stroke="#666"/>
  <text x="840" y="475" text-anchor="middle" font-family="Arial, sans-serif" font-size="7" fill="#333">QNX</text>
  
  <rect x="860" y="467" width="30" height="12" rx="2" fill="white" stroke="#666"/>
  <text x="875" y="475" text-anchor="middle" font-family="Arial, sans-serif" font-size="7" fill="#333">...</text>
  
  <rect x="920" y="460" width="60" height="40" rx="4" fill="white" stroke="#4A7C59"/>
  <text x="950" y="485" text-anchor="middle" font-family="Arial, sans-serif" font-size="9" font-weight="bold" fill="#333">...</text>
  
  <!-- Hardware Architecture Layer -->
  <rect x="150" y="540" width="910" height="60" rx="8" fill="#D4E6F1" stroke="#5D6D7E" stroke-width="2" />
  
  <rect x="200" y="560" width="90" height="25" rx="4" fill="#5D6D7E"/>
  <text x="245" y="577" text-anchor="middle" font-family="Arial, sans-serif" font-size="11" font-weight="bold" fill="white">x86_64</text>
  
  <rect x="310" y="560" width="90" height="25" rx="4" fill="#5D6D7E"/>
  <text x="355" y="577" text-anchor="middle" font-family="Arial, sans-serif" font-size="11" font-weight="bold" fill="white">x86_32</text>
  
  <rect x="420" y="560" width="90" height="25" rx="4" fill="#5D6D7E"/>
  <text x="465" y="577" text-anchor="middle" font-family="Arial, sans-serif" font-size="11" font-weight="bold" fill="white">AArch64</text>
  
  <rect x="530" y="560" width="90" height="25" rx="4" fill="#5D6D7E"/>
  <text x="575" y="577" text-anchor="middle" font-family="Arial, sans-serif" font-size="11" font-weight="bold" fill="white">ARMv7</text>
  
  <rect x="640" y="560" width="90" height="25" rx="4" fill="#5D6D7E" />
  <text x="685" y="577" text-anchor="middle" font-family="Arial, sans-serif" font-size="11" font-weight="bold" fill="white">RISC-V</text>

  <rect x="750" y="560" width="90" height="25" rx="4" fill="#5D6D7E" />
  <text x="795" y="577" text-anchor="middle" font-family="Arial, sans-serif" font-size="11" font-weight="bold" fill="white">...</text>
  
  <!-- GPU -->
  <rect x="1070" y="440" width="100" height="160" rx="8" fill="#4A7C59" stroke="#0F5132" stroke-width="2" />
  <text x="1115" y="525" text-anchor="middle" font-family="Arial, sans-serif" font-size="14" font-weight="bold" fill="white">GPU</text>
  
  <!-- FPGA -->
  <rect x="1180" y="440" width="100" height="160" rx="8" fill="#4A7C59" stroke="#0F5132" stroke-width="2" />
  <text x="1230" y="525" text-anchor="middle" font-family="Arial, sans-serif" font-size="14" font-weight="bold" fill="white">FPGA</text>
  
  <!-- Connection lines -->

  <!-- App Connections -->
  <line x1="95" y1="190" x2="95" y2="300" stroke="#2B5C8C" stroke-width="2" stroke-dasharray="5,5"/>
  <line x1="205" y1="190" x2="205" y2="300" stroke="#2B5C8C" stroke-width="2" stroke-dasharray="5,5"/>

  <!-- Tunnel Connections -->
  <line x1="350" y1="160" x2="440" y2="160" stroke="#2B5C8C" stroke-width="2" stroke-dasharray="5,5"/>
  <line x1="550" y1="190" x2="550" y2="300" stroke="#2B5C8C" stroke-width="2" stroke-dasharray="5,5"/>

  <!-- Gateway Connections -->
  <line x1="730" y1="90" x2="730" y2="130" stroke="#2B5C8C" stroke-width="2" stroke-dasharray="5,5"/>
  <line x1="805" y1="90" x2="805" y2="130" stroke="#2B5C8C" stroke-width="2" stroke-dasharray="5,5"/>
  <line x1="880" y1="90" x2="880" y2="130" stroke="#2B5C8C" stroke-width="2" stroke-dasharray="5,5"/>
  <line x1="805" y1="190" x2="805" y2="300" stroke="#2B5C8C" stroke-width="2" stroke-dasharray="5,5"/>

  <!-- ROS Connections -->
  <line x1="995" y1="90" x2="995" y2="125" stroke="#666" stroke-width="2" stroke-dasharray="5,5"/>
  <line x1="1054" y1="90" x2="1054" y2="125" stroke="#666" stroke-width="2" stroke-dasharray="5,5"/>
  <line x1="1115" y1="90" x2="1115" y2="125" stroke="#666" stroke-width="2" stroke-dasharray="5,5"/>
  <line x1="1054" y1="185" x2="1054" y2="300" stroke="#2B5C8C" stroke-width="2" stroke-dasharray="5,5"/>
  
  <!-- AUTOSAR Connections -->
  <line x1="1225" y1="95" x2="1225" y2="137" stroke="#666" stroke-width="2" stroke-dasharray="5,5"/>
  <line x1="1225" y1="180" x2="1225" y2="300" stroke="#666" stroke-width="2" stroke-dasharray="5,5"/>
  
</svg>
