<svg viewBox="0 0 800 500" xmlns="http://www.w3.org/2000/svg">
  <!-- Background -->
  <rect width="800" height="500" fill="transparent"/>
  
  <!-- User API Layer -->
  <rect x="150" y="60" width="500" height="80" rx="8" fill="#2B5C8C" stroke="#1A3D5C" stroke-width="2"/>
  <text x="170" y="85" font-family="Arial, sans-serif" font-size="14" font-weight="bold" fill="white">iceoryx2</text>
  
  <!-- User API Components -->
  <rect x="270" y="85" width="80" height="30" rx="4" fill="#A5CEE4" stroke="#2B5C8C" stroke-width="1"/>
  <text x="310" y="105" text-anchor="middle" font-family="Arial, sans-serif" font-size="11" font-weight="bold" fill="#2B5C8C">Service</text>
  
  <rect x="370" y="85" width="80" height="30" rx="4" fill="#A5CEE4" stroke="#2B5C8C" stroke-width="1"/>
  <text x="410" y="105" text-anchor="middle" font-family="Arial, sans-serif" font-size="11" font-weight="bold" fill="#2B5C8C">Ports</text>
  
  <rect x="470" y="85" width="60" height="30" rx="4" fill="#A5CEE4" stroke="#2B5C8C" stroke-width="1"/>
  <text x="500" y="105" text-anchor="middle" font-family="Arial, sans-serif" font-size="11" font-weight="bold" fill="#2B5C8C">...</text>
  
  <!-- Concept Abstraction Layer -->
  <rect x="150" y="160" width="500" height="80" rx="8" fill="#2B5C8C" stroke="#1A3D5C" stroke-width="2"/>
  <text x="170" y="185" font-family="Arial, sans-serif" font-size="14" font-weight="bold" fill="white">iceoryx2_cal</text>
  
  <!-- CAL Components -->
  <rect x="270" y="185" width="80" height="30" rx="4" fill="#A5CEE4" stroke="#2B5C8C" stroke-width="1"/>
  <text x="310" y="205" text-anchor="middle" font-family="Arial, sans-serif" font-size="11" font-weight="bold" fill="#2B5C8C">Storage</text>
  
  <rect x="370" y="185" width="80" height="30" rx="4" fill="#A5CEE4" stroke="#2B5C8C" stroke-width="1"/>
  <text x="410" y="205" text-anchor="middle" font-family="Arial, sans-serif" font-size="11" font-weight="bold" fill="#2B5C8C">Channels</text>
  
  <rect x="470" y="185" width="60" height="30" rx="4" fill="#A5CEE4" stroke="#2B5C8C" stroke-width="1"/>
  <text x="500" y="205" text-anchor="middle" font-family="Arial, sans-serif" font-size="11" font-weight="bold" fill="#2B5C8C">...</text>
  
  <!-- Building Blocks Layer -->
  <rect x="150" y="260" width="500" height="80" rx="8" fill="#2B5C8C" stroke="#1A3D5C" stroke-width="2"/>
  <text x="170" y="285" font-family="Arial, sans-serif" font-size="14" font-weight="bold" fill="white">iceoryx2_bb</text>
  
  <!-- BB Components -->
  <rect x="270" y="285" width="80" height="30" rx="4" fill="#A5CEE4" stroke="#2B5C8C" stroke-width="1"/>
  <text x="310" y="305" text-anchor="middle" font-family="Arial, sans-serif" font-size="11" font-weight="bold" fill="#2B5C8C">Algorithms</text>
  
  <rect x="370" y="285" width="80" height="30" rx="4" fill="#A5CEE4" stroke="#2B5C8C" stroke-width="1"/>
  <text x="410" y="305" text-anchor="middle" font-family="Arial, sans-serif" font-size="11" font-weight="bold" fill="#2B5C8C">Containers</text>
  
  <rect x="470" y="285" width="60" height="30" rx="4" fill="#A5CEE4" stroke="#2B5C8C" stroke-width="1"/>
  <text x="500" y="305" text-anchor="middle" font-family="Arial, sans-serif" font-size="11" font-weight="bold" fill="#2B5C8C">...</text>
  
  <!-- Platform Abstraction Layer -->
  <rect x="150" y="360" width="500" height="80" rx="8" fill="#2B5C8C" stroke="#1A3D5C" stroke-width="2"/>
  <text x="170" y="385" font-family="Arial, sans-serif" font-size="14" font-weight="bold" fill="white">iceoryx2_pal</text>
  
  <!-- PAL Components -->
  <rect x="270" y="385" width="80" height="30" rx="4" fill="#A5CEE4" stroke="#2B5C8C" stroke-width="1"/>
  <text x="310" y="405" text-anchor="middle" font-family="Arial, sans-serif" font-size="11" font-weight="bold" fill="#2B5C8C">POSIX</text>
  
  <rect x="370" y="385" width="60" height="30" rx="4" fill="#A5CEE4" stroke="#2B5C8C" stroke-width="1"/>
  <text x="400" y="405" text-anchor="middle" font-family="Arial, sans-serif" font-size="11" font-weight="bold" fill="#2B5C8C">...</text>
  
</svg>
