<svg viewBox="0 0 800 500" xmlns="http://www.w3.org/2000/svg">
  <defs>
    <marker id="arrowhead" markerWidth="6" markerHeight="4" 
     refX="5" refY="2" orient="auto">
      <polygon points="0 0, 6 2, 0 4" fill="#6c7b7f" />
    </marker>
  </defs>
  
  <!-- Background -->
  <rect width="800" height="500" fill="transparent"/>
  
  <!-- Service -->
  <circle cx="400" cy="250" r="50" fill="#4b5563" stroke="#374151" stroke-width="2" />
  <text x="400" y="245" text-anchor="middle" font-size="14" font-weight="bold" fill="white">Service</text>
  <text x="400" y="270" text-anchor="middle" font-size="10" fill="white">/calculation</text>
  
  <!-- Client Participant 1 -->
  <rect x="80" y="120" width="150" height="100" fill="#f9fafb" stroke="#6c7b7f" stroke-width="2" />
  <text x="155" y="145" text-anchor="middle" font-size="12" font-weight="bold" fill="#374151">Participant</text>
  
  <!-- Client Port 1 -->
  <rect x="100" y="165" width="110" height="35" fill="#6b7280" stroke="#4b5563" stroke-width="2"/>
  <text x="155" y="180" text-anchor="middle" font-size="11" font-weight="bold" fill="white">Client Port</text>
  <text x="155" y="193" text-anchor="middle" font-size="9" fill="white">Make requests</text>
  
  <!-- Client Participant 2 -->
  <rect x="80" y="280" width="150" height="100" fill="#f9fafb" stroke="#6c7b7f" stroke-width="2" />
  <text x="155" y="305" text-anchor="middle" font-size="12" font-weight="bold" fill="#374151">Participant</text>
  
  <!-- Client Port 2 -->
  <rect x="100" y="325" width="110" height="35" fill="#6b7280" stroke="#4b5563" stroke-width="2"/>
  <text x="155" y="340" text-anchor="middle" font-size="11" font-weight="bold" fill="white">Client Port</text>
  <text x="155" y="353" text-anchor="middle" font-size="9" fill="white">Make requests</text>
  
  <!-- Server Participant -->
  <rect x="570" y="200" width="150" height="100" fill="#f9fafb" stroke="#6c7b7f" stroke-width="2" />
  <text x="645" y="225" text-anchor="middle" font-size="12" font-weight="bold" fill="#374151">Participant</text>
  
  <!-- Server Port -->
  <rect x="590" y="245" width="110" height="35" fill="#6b7280" stroke="#4b5563" stroke-width="2"/>
  <text x="645" y="260" text-anchor="middle" font-size="11" font-weight="bold" fill="white">Server Port</text>
  <text x="645" y="273" text-anchor="middle" font-size="9" fill="white">Respond to requests</text>
  
  <!-- Request Arrows from Clients to Service -->
  <line x1="230" y1="160" x2="350" y2="215" stroke="#6c7b7f" stroke-width="3" marker-end="url(#arrowhead)"/>
  <line x1="230" y1="320" x2="350" y2="272" stroke="#6c7b7f" stroke-width="3" marker-end="url(#arrowhead)"/>
  
  <!-- Request Arrow -->
  <line x1="450" y1="230" x2="565" y2="230" stroke="#6c7b7f" stroke-width="3" marker-end="url(#arrowhead)"/>
  
  <!-- Response Stream Arrows -->
  <line x1="570" y1="270" x2="450" y2="270" stroke="#6c7b7f" stroke-width="3" marker-end="url(#arrowhead)"/>
  <line x1="570" y1="280" x2="450" y2="280" stroke="#6c7b7f" stroke-width="2" marker-end="url(#arrowhead)" stroke-dasharray="5,5"/>
  <line x1="570" y1="290" x2="450" y2="290" stroke="#6c7b7f" stroke-width="2" marker-end="url(#arrowhead)" stroke-dasharray="3,3"/>
  
  <!-- Response Stream Arrows (Service to Client 1) -->
  <line x1="355" y1="230" x2="232" y2="180" stroke="#6c7b7f" stroke-width="3" marker-end="url(#arrowhead)"/>
  <line x1="350" y1="240" x2="232" y2="190" stroke="#6c7b7f" stroke-width="2" marker-end="url(#arrowhead)" stroke-dasharray="5,5"/>
  <line x1="350" y1="250" x2="232" y2="200" stroke="#6c7b7f" stroke-width="2" marker-end="url(#arrowhead)" stroke-dasharray="3,3"/>
  
  <!-- Response Stream Arrows (Service to Client 2) -->
  <line x1="360" y1="280" x2="232" y2="330" stroke="#6c7b7f" stroke-width="3" marker-end="url(#arrowhead)"/>
  <line x1="360" y1="290" x2="232" y2="340" stroke="#6c7b7f" stroke-width="2" marker-end="url(#arrowhead)" stroke-dasharray="5,5"/>
  <line x1="360" y1="300" x2="232" y2="350" stroke="#6c7b7f" stroke-width="2" marker-end="url(#arrowhead)" stroke-dasharray="3,3"/>

  <!-- Request label -->
  <text x="510" y="220" text-anchor="middle" font-size="10" fill="#6c7b7f">Request</text>

  <!-- Response Stream Label -->
  <text x="510" y="320" text-anchor="middle" font-size="10" fill="#6c7b7f">Streaming Response</text>
  
</svg>
